<svg width="90" height="120" viewBox="0 0 90 120" fill="none" xmlns="http://www.w3.org/2000/svg">
<path d="M44.4834 0.0311223C45.0126 0.0268821 45.5418 0.0193501 46.0709 0.00835138C50.1002 -0.0749239 53.6166 0.464726 57.4748 1.62084C57.7932 1.71396 58.1115 1.80709 58.4394 1.90303C69.2853 5.23312 78.8484 12.7476 84.2534 22.8129C84.9904 24.2437 85.6842 25.691 86.344 27.1589C86.5377 27.5864 86.7314 28.0139 86.931 28.4543C87.4739 29.7982 87.8731 31.1241 88.2408 32.5256C88.4255 33.2184 88.4255 33.2184 88.6138 33.9251C90.2152 40.7923 90.0248 49.3097 87.8244 56.0281C87.7451 56.2778 87.6658 56.5276 87.5841 56.7849C85.5137 63.1559 82.2774 69.348 77.3151 73.9426C76.6732 74.5556 76.6732 74.5556 76.0342 75.426C74.9037 76.7912 73.5446 77.7849 72.1523 78.8712C69.8151 80.8784 68.9847 83.133 67.9682 85.9613C67.2423 87.8204 66.4218 89.46 64.84 90.7197C62.4872 91.7491 59.8242 91.5236 57.2995 91.466C56.2693 91.4436 55.2407 91.4432 54.2103 91.4458C53.5539 91.4401 52.8975 91.4332 52.2412 91.4249C51.9342 91.4244 51.6273 91.4239 51.3111 91.4234C51.0244 91.4151 50.7377 91.4069 50.4423 91.3984C50.0661 91.3916 50.0661 91.3916 49.6823 91.3847C48.5938 91.0892 48.1578 90.6013 47.4817 89.7087C47.2738 88.6241 47.2738 88.6241 47.2431 87.3465C47.2289 86.8669 47.2147 86.3873 47.2 85.8931C47.1928 85.3693 47.1865 84.8456 47.181 84.3218C47.1768 84.056 47.1726 83.7903 47.1683 83.5165C47.1461 82.1066 47.1324 80.6969 47.126 79.2869C47.1195 78.129 47.0991 76.9727 47.0653 75.8152C46.7608 65.1914 46.7608 65.1914 49.0236 62.2866C49.9279 61.3341 50.8904 60.5422 51.9231 59.7292C52.4413 59.1266 52.9467 58.5121 53.4267 57.8787C53.6533 57.5919 53.8799 57.3052 54.1134 57.0097C54.3677 56.6858 54.622 56.3618 54.884 56.0281C55.2372 55.5812 55.5904 55.1345 55.9438 54.6878C56.3154 54.2171 56.687 53.7462 57.0585 53.2753C57.235 53.0518 57.4116 52.8283 57.5935 52.598C58.3297 51.6617 59.0345 50.7276 59.6955 49.7361C60.7972 49.5987 60.7972 49.5987 62.1476 49.5741C64.6816 49.4393 66.5198 49.1191 68.4005 47.3592C70.1975 45.3499 70.6305 43.4201 70.5634 40.7969C70.2877 38.6361 69.4109 37.1485 67.7875 35.7121C65.778 34.3271 63.9689 33.8425 61.5346 33.9743C59.2158 34.4319 57.1529 35.6371 55.7862 37.5916C54.7824 39.5555 54.6824 41.2727 54.884 43.4441C55.128 44.1925 55.128 44.1925 55.4623 44.8552C56.0804 46.2256 56.1078 46.4936 55.6243 47.8855C54.9512 48.8835 54.1825 49.7911 53.4036 50.7076C53.1862 50.9691 52.9689 51.2305 52.7449 51.4999C52.307 52.0265 51.8677 52.5519 51.427 53.0762C50.6055 54.054 49.7947 55.0402 48.9853 56.0281C48.7267 56.3434 48.4681 56.6588 48.2017 56.9837C47.1876 58.2442 46.2153 59.5334 45.261 60.8396C43.7267 60.2664 43.0498 59.2652 42.0918 57.9712C41.7659 57.5358 41.4396 57.1006 41.1131 56.6656C40.9443 56.4396 40.7756 56.2135 40.6018 55.9805C39.7364 54.8332 38.8426 53.7086 37.9512 52.5813C37.6118 52.1477 37.2725 51.714 36.9333 51.2802C36.3795 50.5732 35.8185 49.8779 35.2447 49.1867C33.7873 47.392 33.7873 47.392 33.7873 46.1737C33.9095 45.8836 34.0316 45.5935 34.1575 45.2947C34.919 43.2789 35.3408 41.4088 34.6302 39.3309C33.6863 37.3016 32.4515 35.9274 30.6182 34.6307C28.2569 33.8149 25.6087 33.741 23.2853 34.7463C21.3816 35.8551 20.0429 37.6725 19.3528 39.7429C19.0621 42.2755 19.2537 44.2474 20.6236 46.4253C21.7858 47.8686 23.1377 48.777 24.9045 49.366C25.4484 49.3338 25.4484 49.3338 26.0033 49.3009C28.108 49.2194 29.539 49.2446 31.1503 50.6917C32.0419 51.7878 32.8237 52.9598 33.609 54.1334C34.5941 55.542 35.7127 56.8411 36.8177 58.1562C37.4305 58.8936 38.0414 59.6314 38.6416 60.3791C39.3265 61.2192 39.3265 61.2192 40.0998 61.9697C42.6207 64.6558 42.7165 67.1462 42.6412 70.6448C42.6395 71.1919 42.6388 71.7391 42.6392 72.2862C42.6369 73.4256 42.6247 74.5643 42.6047 75.7036C42.5794 77.1623 42.5739 78.6203 42.575 80.0792C42.5746 81.2058 42.5665 82.3323 42.5558 83.4588C42.5511 83.9968 42.5482 84.5348 42.5471 85.0729C42.5439 85.823 42.5297 86.573 42.5151 87.323C42.5066 87.9621 42.5066 87.9621 42.498 88.6142C42.2567 89.9481 41.9029 90.3925 40.8196 91.1892C40.0944 91.3772 40.0944 91.3772 39.3277 91.3808C39.0386 91.3854 38.7495 91.3901 38.4516 91.3949C38.1424 91.3919 37.8331 91.3889 37.5145 91.3858C37.1933 91.3872 36.8721 91.3887 36.5411 91.3901C35.8623 91.3911 35.1834 91.3884 34.5046 91.3822C33.4695 91.3743 32.4354 91.3821 31.4004 91.3916C30.7397 91.3906 30.0789 91.3887 29.4182 91.3858C29.1105 91.3888 28.8028 91.3918 28.4857 91.3949C26.5045 91.3632 25.3685 91.0199 23.7942 89.7087C23.2766 88.9627 23.2766 88.9627 22.9152 88.1357C22.7649 87.8137 22.6146 87.4916 22.4597 87.1598C22.1839 86.544 21.9083 85.9281 21.6347 85.3112C20.0199 81.7143 18.4798 79.1956 15.2815 76.7546C6.80162 69.8539 1.38217 59.2293 0.186379 48.415C-0.828597 36.958 2.30885 26.0292 9.42901 16.9576C15.8849 9.4238 23.4449 3.99585 33.0471 1.25072C33.4858 1.12119 33.4858 1.12119 33.9334 0.989035C37.3772 0.0448676 40.9393 0.0507606 44.4834 0.0311223Z" fill="#F2B229"/>
<path d="M30.5251 95.1051C30.8689 95.102 31.2127 95.0988 31.5669 95.0956C32.7036 95.0869 33.8401 95.0866 34.9767 95.087C35.7668 95.0844 36.5569 95.0816 37.3469 95.0785C39.0031 95.0735 40.6592 95.0729 42.3154 95.0751C44.4379 95.0773 46.5601 95.066 48.6826 95.051C50.3143 95.0414 51.946 95.0404 53.5777 95.0417C54.3603 95.0411 55.1428 95.0375 55.9254 95.0309C57.0197 95.0227 58.1134 95.0263 59.2078 95.0328C59.531 95.0279 59.8543 95.023 60.1873 95.0179C61.8092 95.0404 62.4642 95.1145 63.7954 96.1278C64.5066 97.1111 64.5066 97.1111 64.5297 98.2677C64.0602 99.5382 63.842 99.8061 62.656 100.442C61.5211 100.609 60.3951 100.598 59.2498 100.592C58.9054 100.594 58.561 100.597 58.2062 100.599C57.0677 100.606 55.9295 100.605 54.791 100.603C54.0001 100.604 53.2091 100.606 52.4181 100.609C50.7604 100.612 49.1028 100.611 47.4451 100.607C45.3192 100.603 43.1936 100.61 41.0677 100.621C39.4345 100.628 37.8012 100.628 36.1679 100.626C35.384 100.626 34.6001 100.628 33.8163 100.633C32.721 100.638 31.6262 100.634 30.531 100.628C30.0441 100.633 30.0441 100.633 29.5474 100.639C27.3638 100.612 27.3638 100.612 26.1832 99.7727C25.3937 98.5846 25.442 97.7617 25.6443 96.3709C26.9499 94.8578 28.6807 95.0989 30.5251 95.1051Z" fill="#050505"/>
<path d="M30.4894 104.782C30.8338 104.78 31.1781 104.778 31.5329 104.776C32.6733 104.771 33.8136 104.771 34.9541 104.772C35.7455 104.771 36.537 104.769 37.3285 104.767C38.9884 104.765 40.6483 104.765 42.3082 104.767C44.437 104.769 46.5656 104.763 48.6943 104.754C50.3292 104.749 51.964 104.748 53.5989 104.749C54.3838 104.749 55.1687 104.747 55.9536 104.744C57.0506 104.739 58.1474 104.741 59.2444 104.746C59.5695 104.743 59.8947 104.74 60.2297 104.737C61.5372 104.749 62.4233 104.764 63.5984 105.368C64.1369 105.994 64.1369 105.994 64.322 107.266C64.1369 108.585 64.1369 108.585 63.598 109.395C62.1926 110.395 60.9368 110.275 59.2502 110.263C58.9058 110.266 58.5614 110.269 58.2066 110.272C57.0681 110.281 55.93 110.278 54.7915 110.275C54.0005 110.277 53.2096 110.279 52.4186 110.282C50.7609 110.286 49.1032 110.284 47.4455 110.279C45.3196 110.272 43.1941 110.281 41.0682 110.294C39.4349 110.302 37.8017 110.301 36.1684 110.298C35.3845 110.298 34.6006 110.301 33.8167 110.306C32.7214 110.313 31.6267 110.307 30.5314 110.299C30.2068 110.303 29.8823 110.307 29.5478 110.312C27.9961 110.288 27.361 110.276 26.1706 109.211C25.4556 107.856 25.6037 107.076 26.0149 105.624C27.4899 104.64 28.7768 104.777 30.4894 104.782Z" fill="#060606"/>
<path d="M35.0638 113.945C35.7901 113.938 35.7901 113.938 36.531 113.931C37.0583 113.933 37.5857 113.936 38.113 113.94C38.655 113.939 39.197 113.937 39.739 113.936C40.874 113.933 42.0089 113.937 43.1439 113.943C44.5977 113.952 46.051 113.947 47.5048 113.938C48.6237 113.933 49.7426 113.935 50.8616 113.938C51.3975 113.939 51.9335 113.938 52.4694 113.935C53.2188 113.931 53.9683 113.938 54.7176 113.945C55.357 113.947 55.357 113.947 56.0092 113.948C57.3409 114.177 57.7791 114.55 58.5851 115.617C58.7701 116.727 58.7701 116.727 58.5851 117.838C57.7791 118.905 57.3409 119.278 56.0092 119.506C55.3699 119.508 55.3699 119.508 54.7176 119.51C53.9914 119.517 53.9914 119.517 53.2505 119.524C52.7231 119.521 52.1958 119.518 51.6685 119.515C51.1265 119.516 50.5845 119.517 50.0425 119.519C48.9075 119.521 47.7726 119.518 46.6376 119.511C45.1838 119.503 43.7305 119.508 42.2767 119.516C41.1578 119.522 40.0389 119.52 38.9199 119.516C38.384 119.515 37.848 119.516 37.3121 119.52C36.5627 119.524 35.8132 119.517 35.0638 119.51C34.6376 119.509 34.2114 119.507 33.7723 119.506C32.4406 119.278 32.0024 118.905 31.1964 117.838C31.0114 116.727 31.0114 116.727 31.1964 115.617C32.3471 114.094 33.1976 113.95 35.0638 113.945Z" fill="#030404"/>
</svg>
